<?xml version="1.0" encoding="UTF-8"?><svg id="Layer_1" xmlns="http://www.w3.org/2000/svg" viewBox="346 250 2075 360"><defs><style>.cls-1{fill:#f4e4f0;}.cls-2{fill:#ff68d8;}</style></defs><g><path class="cls-2" d="M1764.09,529.52c-.97-3.61-2.78-6.88-5.43-9.77-2.66-2.89-6.33-5.3-11.04-7.24-4.69-1.93-10.79-2.89-18.27-2.89s-13.56,.96-18.27,2.89c-4.7,1.94-8.38,4.34-11.03,7.24-2.66,2.89-4.48,6.15-5.43,9.77-.97,3.62-1.44,7.24-1.44,10.86s.47,7.24,1.44,10.85c.96,3.62,2.77,6.94,5.43,9.95,2.65,3.02,6.33,5.49,11.03,7.42,4.71,1.93,10.79,2.89,18.27,2.89s13.57-.96,18.27-2.89c4.71-1.93,8.38-4.4,11.04-7.42,2.65-3.01,4.46-6.33,5.43-9.95,.96-3.61,1.45-7.24,1.45-10.85s-.49-7.24-1.45-10.86Z"/><path class="cls-1" d="M721.78,362.01c0-6.19-16.04-15.13-20.63-18.18-9.39-6.25-19.22-11.85-29.38-16.77-53.09-25.7-117.35-32.82-174.78-18.96-63.7,15.37-119.97,63.07-127.7,131.16-2.92,25.72,2.63,64.23,19.51,84.54,16.85,20.29,40.99,33.71,66.16,40.64,52.08,14.33,109.34,10.6,160.38-7.41,17.75-6.26,34.58-15.16,50.65-25.08,14.98-9.22,28.5-20.04,41.59-31.69,4.21-3.74,9.48-7.49,12.81-12.1,.12,.12,.24,.24,.3,.42,.06,.12,.18,.24,.24,.36v82.42h64.53V286.11h-63.69v75.9Zm-45.12,63.08c-1.18,2.28-2.4,4.54-3.68,6.8-4.83,8.52-10.37,16.81-16.63,24.3-7.42,8.87-15.98,16.75-25.47,23.36-18.54,12.91-39.86,22.05-61.94,26.81-2.84,.61-5.69,1.14-8.56,1.6-19.82,3.2-39.76,3.08-59.7,1.33-20.61-1.75-42.78-9.25-57.46-24.59-16.62-17.34-18.19-49.1-6.65-69.71,8.1-14.5,20.91-26.04,35.35-34.08,51.42-28.64,114.45-21.15,167.44-1.27,11.72,4.41,27.31,9.91,36.44,18.91,3.84,3.75,5.95,8.77,5.49,14.15-.38,4.44-2.62,8.49-4.63,12.38Z"/><path class="cls-1" d="M1177.15,358.68c-13.6-22.78-36.26-35.77-59.52-46.89-25.86-12.39-53.72-20.42-82.12-23.93-10.75-1.33-21.63-1.99-32.51-1.99-57.65,0-113.9,26.41-148.34,73.48-28.28,38.73-42.72,90.7-23.75,136.32,6.16,14.68,15.35,27.73,27.55,39.16,12.21,11.42,27.37,20.67,45.44,27.67,18.07,7.13,38.97,10.63,62.6,10.63,38.07,0,70.15-7.61,96.2-22.84,26.1-15.23,47.07-36.68,62.84-64.41v85.62h64.78v-111.06c0-19.28,1.57-40.42-.6-60.61-1.57-14.56-5.14-28.64-12.57-41.15Zm-62.78,42c-3.14,8.04-6.77,15.95-10.88,23.63-7.98,14.93-17.88,28.82-29.73,41.03-32.39,33.41-80.48,52.87-126.35,45.02-20.85-3.57-41.87-13.6-52.63-31.84-11.06-18.79-9.19-43.02-.3-62.96,5.2-11.66,12.63-22.24,21.57-31.3,40.06-40.42,101.76-43.69,153.42-27.13,8.04,2.6,15.95,5.68,23.63,9.25,6.64,3.08,15.29,6.28,20.6,11.54,7.25,7.13,3.81,14.62,.67,22.78Z"/><path class="cls-1" d="M1632.27,314.09c-9.79-8.4-22.12-15.17-37.04-20.24-14.93-5.08-32.69-7.61-53.17-7.61-31.48,0-60.06,4.17-85.74,12.51-25.74,8.28-48.58,18.73-68.58,31.36-20,12.63-37.22,26.22-51.66,40.91-14.38,14.68-25.92,28.52-34.5,41.51v-126.41h-64.47l2.36,258.74v26.53h62.54c.06-2.54,.36-6.83,.42-7.37,.55-5.02,1.63-9.97,2.72-14.86,1.15-5.08,2.36-10.15,3.75-15.23,2.42-9.06,5.44-17.95,8.64-26.77,1.15-3.08,2.36-6.22,3.56-9.31,5.2-13.23,11.96-26.71,20.24-40.48,22.11-36.38,49.73-63.63,82.84-81.63,33.11-18.07,69.79-27.13,110.09-27.13,10.64,0,19.52,.97,26.65,2.96,7.19,1.93,12.99,4.47,17.58,7.55,4.53,3.14,7.79,6.53,9.73,10.15,1.93,3.63,2.9,7.01,2.9,10.15,0,4.17-1.09,8.64-3.32,13.41-2.17,4.83-5.86,9.31-11.06,13.47s-12.32,7.8-21.27,10.88c-8.94,3.14-20.06,4.96-33.29,5.5-18.49,.79-34.5,.18-48.16-1.75-13.66-1.99-25.02-4.29-34.08-7.01-9.12-2.78-18.19-6.59-27.25-11.54l-38.61,44.41c1.57,2.36,5.2,7.19,10.94,14.44,5.68,7.25,13.54,15.71,23.57,25.32,9.97,9.61,22.48,19.64,37.4,30.03,14.93,10.39,32.45,19.82,52.63,28.22,20.12,8.46,43.02,15.29,68.77,20.48,25.68,5.2,54.38,7.25,86.1,6.22v-61.94c-11.66,.48-24.23,.24-37.58-.79-13.42-1.03-26.95-2.84-40.73-5.44-13.78-2.6-27.37-6.04-40.73-10.33-13.42-4.29-26.04-9.31-38.01-15.05,14.56,1.33,27.8,1.51,39.76,.6,11.96-.91,20.48-1.99,25.74-3.32,17.88-3.87,33.11-9.37,45.56-16.38,12.45-7.01,22.66-14.86,30.58-23.57,7.91-8.7,13.71-18.13,17.34-28.22,3.62-10.15,5.5-20.3,5.5-30.39,0-11.48-2.36-22.6-7.01-33.54-4.71-10.94-11.91-20.6-21.64-29.06Z"/></g><g><g><path class="cls-1" d="M2016.37,315.25c-15.99-16.59-32.98-25.34-48.56-25.34-1.81,0-3.72,.1-5.53,.3-14.78,2.11-27.45,12.37-36.49,29.66-3.82,7.24-9.55,13.88-17.59,20.11-30.06,23.73-59.72,54.49-83.25,86.87-23.73,36.09-30.06,73.29-17.39,101.84,10.36,23.43,33.18,39.01,64.04,43.84,9.96,1.51,20.61,.6,30.87-2.61,36.2-11.46,70.98-34.18,98.13-62.13,27.15-27.85,46.85-60.93,52.98-93.1,7.54-39.11-5.33-73.49-37.2-99.43Zm-26.64,86.87c-7.04,36.8-52.18,91.99-97.62,105.36l-.2,.1c-3.62,.8-6.84,1.11-9.75,1.11-6.43,0-10.96-1.91-13.37-5.83-8.95-14.38,15.58-48.56,26.64-62.54,24.53-31.27,67.66-72.59,86.56-66.35l.81,.4c6.94,5.53,9.35,15.08,6.94,27.75Z"/><path class="cls-1" d="M2366.35,289.21c-15.18-3.02-30.86,2.41-49.06,17.19-15.89,12.77-30.86,26.84-44.54,41.93-4.22,4.73-8.45,9.75-12.57,14.68-10.66,12.87-21.72,26.24-35.89,35.59-.7,.4-1.71,.5-2.41,.1-.8-.3-1.41-1.11-1.51-2.01-.91-8.85,2.61-16.99,6.03-24.93l1.31-3.12c5.63-13.37,9.35-27.65,11.26-42.33,1.81-14.58-6.43-39.71-21.61-44.64-1.71-.5-3.52-.8-5.33-.8-8.14,0-16.89,5.03-24.73,9.95-26.04,16.29-44.54,43.23-62.64,71.78-8.04,12.57-15.79,25.74-23.23,38.41-9.55,16.29-19.4,33.08-30.06,48.96-4.83,10.35-11.46,21.41-17.9,32.17-21.82,36.19-42.43,70.48-6.23,95.11,1.91,1.31,4.22,2.01,6.43,2.01,1.21,0,2.51-.2,3.62-.6,23.42-8.04,35.69-30.86,45.34-51.58,1.81-3.92,3.62-7.84,5.33-11.66,3.72-8.34,7.54-16.89,11.86-25.03l1.41-2.71c5.43-10.36,11.06-21.11,20.71-28.45,.6-.5,1.41-.7,2.21-.5,.7,.2,1.41,.81,1.71,1.51,9.45,22.62,24.53,34.18,44.74,34.28h.2c17.9,0,37-8.04,51.18-21.62,10.66-10.05,20.51-21.31,29.96-32.27l3.42-3.92c4.83-5.53,9.75-11.06,14.68-16.39,1.1-1.21,2.92-2.61,4.93-4.32,2.92-2.31,7.74-6.33,8.35-8.24,.3-1,1.31-1.81,2.31-1.81,.3,0,.5,.1,.8,.2,1.31,.4,2.01,1.81,1.61,3.12-5.23,16.89-16.99,35.39-29.46,55.1-24.23,38.2-49.26,77.72-25.53,105.57,8.95,9.15,20.51,11.16,31.77,5.43,13.57-6.84,21.61-24.43,28.65-39.91,2.31-4.93,4.42-9.65,6.63-13.77,11.06-20.61,22.02-41.72,32.57-62.64,2.71-5.43,5.53-10.86,8.35-16.29,14.88-28.95,30.26-58.91,35.79-90.99,4.42-25.74-3.32-56.3-30.47-62.54Z"/></g></g></svg>